<svg width="40" height="40" viewBox="0 0 40 40" fill="none" xmlns="http://www.w3.org/2000/svg">
<path fill-rule="evenodd" clip-rule="evenodd" d="M24.6225 24.6226C19.7093 29.5358 11.7434 29.5358 6.83019 24.6226C1.91697 19.7093 1.91697 11.7434 6.83019 6.83019C11.7434 1.91697 19.7093 1.91697 24.6225 6.83019C29.5358 11.7434 29.5358 19.7093 24.6225 24.6226ZM28.848 24.4003C32.8937 18.2942 32.2265 9.98608 26.8466 4.60615C20.7051 -1.53538 10.7477 -1.53538 4.60615 4.60615C-1.53538 10.7477 -1.53538 20.7051 4.60615 26.8466C9.98595 32.2264 18.2938 32.8937 24.3999 28.8483L32.4066 36.855L36.8546 32.4069L28.848 24.4003ZM7.94099 23.5105C12.2401 27.8096 19.2102 27.8096 23.5093 23.5105C27.8084 19.2115 27.8084 12.2413 23.5093 7.94221C19.2102 3.64314 12.2401 3.64314 7.94099 7.94221C3.64192 12.2413 3.64192 19.2115 7.94099 23.5105ZM14.1539 11.0085C14.1539 10.1399 14.858 9.43582 15.7265 9.43582C16.5951 9.43582 17.2992 10.1399 17.2992 11.0085V14.1537H20.4445C21.313 14.1537 22.0171 14.8578 22.0171 15.7264C22.0171 16.5949 21.313 17.299 20.4445 17.299H17.2992V20.4443C17.2992 21.3128 16.5951 22.0169 15.7265 22.0169C14.858 22.0169 14.1539 21.3128 14.1539 20.4443V17.299H11.0086C10.1401 17.299 9.436 16.5949 9.436 15.7264C9.436 14.8578 10.1401 14.1537 11.0086 14.1537H14.1539V11.0085ZM34.6307 39.0788L33.5187 37.9667L37.9668 33.5187L39.0788 34.6307C40.3071 35.859 40.3071 37.8505 39.0788 39.0788C37.8505 40.3071 35.859 40.3071 34.6307 39.0788Z" fill="#58BD97"/>
</svg>
