<svg width="20" height="11" viewBox="0 0 20 11" fill="none" xmlns="http://www.w3.org/2000/svg">
<path d="M17.6261 1.12655C18.0167 0.736028 18.6498 0.736028 19.0404 1.12655C19.4309 1.51708 19.4309 2.15024 19.0404 2.54077L17.6261 1.12655ZM10.707 9.45989L9.99992 8.75278L9.99992 8.75278L10.707 9.45989ZM9.29281 9.45989L9.99992 8.75278L9.99992 8.75278L9.29281 9.45989ZM0.959478 2.54077C0.568954 2.15024 0.568954 1.51708 0.959478 1.12655C1.35 0.736028 1.98317 0.736028 2.37369 1.12655L0.959478 2.54077ZM19.0404 2.54077L11.4141 10.167L9.99992 8.75278L17.6261 1.12655L19.0404 2.54077ZM8.58571 10.167L0.959478 2.54077L2.37369 1.12655L9.99992 8.75278L8.58571 10.167ZM11.4141 10.167C10.6331 10.948 9.36675 10.948 8.5857 10.167L9.99992 8.75278L9.99992 8.75278L11.4141 10.167Z" fill="#58BD97"/>
</svg>
