<svg width="42" height="26" viewBox="0 0 42 26" fill="none" xmlns="http://www.w3.org/2000/svg">
<path fill-rule="evenodd" clip-rule="evenodd" d="M1.15327 1.14228C1.89169 0.410892 2.89321 0 3.9375 0H38.0625C39.1068 0 40.1083 0.410892 40.8467 1.14228C41.5852 1.87368 42 2.86566 42 3.9V7.8C42 8.14478 41.8617 8.47544 41.6156 8.71924C41.3694 8.96304 41.0356 9.1 40.6875 9.1C39.6432 9.1 38.6417 9.51089 37.9033 10.2423C37.1648 10.9737 36.75 11.9657 36.75 13C36.75 14.0343 37.1648 15.0263 37.9033 15.7577C38.6417 16.4891 39.6432 16.9 40.6875 16.9C41.0356 16.9 41.3694 17.037 41.6156 17.2808C41.8617 17.5246 42 17.8552 42 18.2V22.1C42 23.1343 41.5852 24.1263 40.8467 24.8577C40.1083 25.5891 39.1068 26 38.0625 26H3.9375C2.89321 26 1.89169 25.5891 1.15327 24.8577C0.414843 24.1263 0 23.1343 0 22.1V18.2C0 17.8552 0.138281 17.5246 0.384422 17.2808C0.630564 17.037 0.964403 16.9 1.3125 16.9C2.35679 16.9 3.35831 16.4891 4.09673 15.7577C4.83516 15.0263 5.25 14.0343 5.25 13C5.25 11.9657 4.83516 10.9737 4.09673 10.2423C3.35831 9.51089 2.35679 9.1 1.3125 9.1C0.964403 9.1 0.630564 8.96304 0.384422 8.71924C0.138281 8.47544 0 8.14478 0 7.8V3.9C0 2.86566 0.414843 1.87368 1.15327 1.14228ZM26 8C27.1046 8 28 7.10457 28 6C28 4.89543 27.1046 4 26 4C24.8954 4 24 4.89543 24 6C24 7.10457 24.8954 8 26 8ZM28 13C28 14.1046 27.1046 15 26 15C24.8954 15 24 14.1046 24 13C24 11.8954 24.8954 11 26 11C27.1046 11 28 11.8954 28 13ZM26 22C27.1046 22 28 21.1046 28 20C28 18.8954 27.1046 18 26 18C24.8954 18 24 18.8954 24 20C24 21.1046 24.8954 22 26 22Z" fill="#58BD97"/>
</svg>
