<svg width="8" height="14" viewBox="0 0 8 14" fill="none" xmlns="http://www.w3.org/2000/svg">
<path d="M0.292787 0.292786C0.105316 0.480314 0 0.734622 0 0.999786C0 1.26495 0.105316 1.51926 0.292787 1.70679L5.24279 6.65678L0.292787 11.6068C0.110629 11.7954 0.00983372 12.048 0.0121121 12.3102C0.0143906 12.5724 0.11956 12.8232 0.304968 13.0086C0.490376 13.194 0.741188 13.2992 1.00339 13.3015C1.26558 13.3037 1.51818 13.2029 1.70679 13.0208L7.36379 7.36378C7.55126 7.17625 7.65657 6.92195 7.65657 6.65678C7.65657 6.39162 7.55126 6.13731 7.36379 5.94978L1.70679 0.292786C1.51926 0.105315 1.26495 0 0.999786 0C0.734622 0 0.480314 0.105315 0.292787 0.292786Z" fill="black"/>
</svg>
