<svg width="42" height="38" viewBox="0 0 42 38" fill="none" xmlns="http://www.w3.org/2000/svg">
<path d="M36.0054 21.7726V35.9144C36.0054 36.4251 35.8404 36.867 35.5104 37.2402C35.1804 37.6134 34.7897 37.8 34.3381 37.8H24.3345V26.4865H17.6655V37.8H7.66189C7.21034 37.8 6.81957 37.6134 6.48959 37.2402C6.15961 36.867 5.99462 36.4251 5.99462 35.9144V21.7726C5.99462 21.7529 5.99897 21.7235 6.00765 21.6842C6.01633 21.6449 6.02068 21.6154 6.02068 21.5958L21 7.63071L35.9793 21.5958C35.9967 21.6351 36.0054 21.694 36.0054 21.7726ZM41.8147 19.7397L40.1996 21.9199C40.0606 22.0966 39.8783 22.2047 39.6525 22.244H39.5744C39.3486 22.244 39.1662 22.1752 39.0273 22.0377L21 5.03804L2.97271 22.0377C2.7643 22.1949 2.55589 22.2636 2.34748 22.244C2.12171 22.2047 1.93935 22.0966 1.80041 21.9199L0.185252 19.7397C0.0463129 19.5433 -0.0144728 19.3125 0.00289456 19.0473C0.0202619 18.7821 0.115782 18.571 0.289456 18.4139L19.0201 0.766017C19.5759 0.255339 20.2358 0 21 0C21.7642 0 22.4241 0.255339 22.9799 0.766017L29.3363 6.7763V1.03118C29.3363 0.756196 29.4145 0.53032 29.5708 0.353546C29.7271 0.176773 29.9268 0.0883866 30.17 0.0883866H35.1717C35.4149 0.0883866 35.6146 0.176773 35.7709 0.353546C35.9272 0.53032 36.0054 0.756196 36.0054 1.03118V13.0518L41.7105 18.4139C41.8842 18.571 41.9797 18.7821 41.9971 19.0473C42.0145 19.3125 41.9537 19.5433 41.8147 19.7397Z" fill="#58BD97"/>
</svg>
