<svg width="18" height="20" viewBox="0 0 18 20" fill="none" xmlns="http://www.w3.org/2000/svg">
<path d="M7.5495 0.529934C8.3874 -0.176646 9.6126 -0.176646 10.4505 0.529944L17.2005 6.22205C17.7074 6.64957 18 7.27895 18 7.94211V17.7448C18 18.7113 17.2165 19.4948 16.25 19.4948H12.75C11.7835 19.4948 11 18.7113 11 17.7448V12.2448C11 12.1068 10.8881 11.9948 10.75 11.9948H7.25C7.1119 11.9948 6.99999 12.1068 6.99999 12.2448V17.7448C6.99999 18.7113 6.2165 19.4948 5.25 19.4948H1.75C0.7835 19.4948 0 18.7113 0 17.7448V7.94211C0 7.27895 0.29255 6.64957 0.79952 6.22205L7.5495 0.529934ZM9.4835 1.67664C9.2042 1.44111 8.7958 1.44111 8.5165 1.67664L1.76651 7.36876C1.59752 7.51126 1.5 7.72106 1.5 7.94211V17.7448C1.5 17.8829 1.61193 17.9948 1.75 17.9948H5.25C5.38807 17.9948 5.49999 17.8829 5.49999 17.7448V12.2448C5.49999 11.2783 6.2835 10.4948 7.25 10.4948H10.75C11.7165 10.4948 12.5 11.2783 12.5 12.2448V17.7448C12.5 17.8829 12.6119 17.9948 12.75 17.9948H16.25C16.3881 17.9948 16.5 17.8829 16.5 17.7448V7.94211C16.5 7.72106 16.4025 7.51126 16.2335 7.36876L9.4835 1.67664Z" fill="#2C3131"/>
</svg>
