<svg width="30" height="29" viewBox="0 0 30 29" fill="none" xmlns="http://www.w3.org/2000/svg">
<path d="M17.8871 0.755859C19.0837 0.755859 20.191 1.38956 20.7971 2.42141L22.019 4.50128H25.125C27.8174 4.50128 30 6.68389 30 9.37628V23.6263C30 26.3187 27.8174 28.5013 25.125 28.5013H4.875C2.18261 28.5013 0 26.3187 0 23.6263V9.37628C0 6.68389 2.18261 4.50128 4.875 4.50128H7.99563L9.3075 2.36483C9.92138 1.36508 11.0104 0.755859 12.1836 0.755859H17.8871ZM15 9.00128C11.2721 9.00128 8.25 12.0234 8.25 15.7513C8.25 19.4791 11.2721 22.5013 15 22.5013C18.728 22.5013 21.75 19.4791 21.75 15.7513C21.75 12.0234 18.728 9.00128 15 9.00128ZM15 11.2513C17.4853 11.2513 19.5 13.266 19.5 15.7513C19.5 18.2365 17.4853 20.2513 15 20.2513C12.5147 20.2513 10.5 18.2365 10.5 15.7513C10.5 13.266 12.5147 11.2513 15 11.2513Z" fill="white"/>
</svg>
