<svg width="36" height="36" viewBox="0 0 36 36" fill="none" xmlns="http://www.w3.org/2000/svg">
<path fill-rule="evenodd" clip-rule="evenodd" d="M7.2 32.4H3.6C2.64522 32.4 1.72955 32.0207 1.05442 31.3456C0.379284 30.6704 0 29.7548 0 28.8V9C0 8.52261 0.189642 8.06477 0.527208 7.72721C0.864773 7.38964 1.32261 7.2 1.8 7.2H7.2918C7.7454 3.1608 11.142 0 15.3 0C19.458 0 22.8546 3.1608 23.3082 7.2H28.8C29.2774 7.2 29.7352 7.38964 30.0728 7.72721C30.4104 8.06477 30.6 8.52261 30.6 9V12.6H9C8.52261 12.6 8.06477 12.7896 7.72721 13.1272C7.38964 13.4648 7.2 13.9226 7.2 14.4V32.4ZM19.71 7.2C19.2924 5.148 17.4726 3.6 15.3 3.6C13.1274 3.6 11.3076 5.148 10.89 7.2H19.71ZM12.6 16.2H34.2C34.6774 16.2 35.1352 16.3896 35.4728 16.7272C35.8104 17.0648 36 17.5226 36 18V32.4C36 33.3548 35.6207 34.2705 34.9456 34.9456C34.2705 35.6207 33.3548 36 32.4 36H14.4C13.4452 36 12.5295 35.6207 11.8544 34.9456C11.1793 34.2705 10.8 33.3548 10.8 32.4V18C10.8 17.5226 10.9896 17.0648 11.3272 16.7272C11.6648 16.3896 12.1226 16.2 12.6 16.2ZM14.4 19.8C14.4 24.7626 18.4374 28.8 23.4 28.8C28.3626 28.8 32.4 24.7626 32.4 19.8H28.8C28.8 22.7772 26.3772 25.2 23.4 25.2C20.4228 25.2 18 22.7772 18 19.8H14.4Z" fill="#58BD97"/>
</svg>
