<svg width="20" height="12" viewBox="0 0 20 12" fill="none" xmlns="http://www.w3.org/2000/svg">
<path d="M0.440231 0.440571C0.722196 0.158691 1.10457 0.000339508 1.50327 0.000339508C1.90197 0.000339508 2.28434 0.158691 2.56631 0.440571L10.0091 7.88335L17.4518 0.440571C17.7354 0.16668 18.1152 0.0151262 18.5095 0.0185528C18.9037 0.0219784 19.2808 0.180109 19.5596 0.458887C19.8384 0.737665 19.9965 1.11479 19.9999 1.50902C20.0034 1.90326 19.8518 2.28307 19.5779 2.56665L11.0721 11.0725C10.7902 11.3543 10.4078 11.5127 10.0091 11.5127C9.61038 11.5127 9.228 11.3543 8.94604 11.0725L0.440231 2.56665C0.158351 2.28468 0 1.90231 0 1.50361C0 1.10491 0.158351 0.722536 0.440231 0.440571Z" fill="#58BD97"/>
</svg>
