<svg width="18" height="18" viewBox="0 0 18 18" fill="none" xmlns="http://www.w3.org/2000/svg">
<path fill-rule="evenodd" clip-rule="evenodd" d="M9 0C4.02955 0 0 4.02955 0 9C0 13.9705 4.02955 18 9 18C13.9705 18 18 13.9705 18 9C18 4.02955 13.9705 0 9 0ZM9.81818 12.2727C9.81818 12.4897 9.73198 12.6978 9.57854 12.8513C9.4251 13.0047 9.217 13.0909 9 13.0909C8.783 13.0909 8.5749 13.0047 8.42146 12.8513C8.26802 12.6978 8.18182 12.4897 8.18182 12.2727V9.81818H5.72727C5.51028 9.81818 5.30217 9.73198 5.14873 9.57854C4.99529 9.4251 4.90909 9.217 4.90909 9C4.90909 8.783 4.99529 8.5749 5.14873 8.42146C5.30217 8.26802 5.51028 8.18182 5.72727 8.18182H8.18182V5.72727C8.18182 5.51028 8.26802 5.30217 8.42146 5.14873C8.5749 4.99529 8.783 4.90909 9 4.90909C9.217 4.90909 9.4251 4.99529 9.57854 5.14873C9.73198 5.30217 9.81818 5.51028 9.81818 5.72727V8.18182H12.2727C12.4897 8.18182 12.6978 8.26802 12.8513 8.42146C13.0047 8.5749 13.0909 8.783 13.0909 9C13.0909 9.217 13.0047 9.4251 12.8513 9.57854C12.6978 9.73198 12.4897 9.81818 12.2727 9.81818H9.81818V12.2727Z" fill="#58BD97"/>
</svg>
