<svg width="20" height="12" viewBox="0 0 20 12" fill="none" xmlns="http://www.w3.org/2000/svg">
<path d="M0.440231 11.0721C0.722196 11.354 1.10457 11.5124 1.50327 11.5124C1.90197 11.5124 2.28434 11.354 2.56631 11.0721L10.0091 3.62935L17.4518 11.0721C17.7354 11.346 18.1152 11.4976 18.5095 11.4941C18.9037 11.4907 19.2808 11.3326 19.5596 11.0538C19.8384 10.775 19.9965 10.3979 19.9999 10.0037C20.0034 9.60944 19.8518 9.22963 19.5779 8.94605L11.0721 0.440231C10.7902 0.158351 10.4078 0 10.0091 0C9.61038 0 9.228 0.158351 8.94604 0.440231L0.440231 8.94605C0.158351 9.22801 0 9.61039 0 10.0091C0 10.4078 0.158351 10.7902 0.440231 11.0721Z" fill="#58BD97"/>
</svg>
