<svg width="20" height="20" viewBox="0 0 20 20" fill="none" xmlns="http://www.w3.org/2000/svg">
<path d="M14.1832 0.733151C15.1608 -0.244384 16.7485 -0.244384 17.7261 0.733151L19.2668 2.27504C20.2444 3.25226 20.2444 4.83834 19.2668 5.81595L17.3741 7.70861L12.2905 2.62581L14.1832 0.733151ZM16.4904 8.59237L7.37119 17.7076C6.96451 18.1143 6.46006 18.4154 5.90868 18.5758L1.20324 19.9601C0.873976 20.0578 0.517734 19.9679 0.274895 19.6902C0.0320556 19.483 -0.0587451 19.1271 0.0381559 18.7947L1.42222 14.0905C1.5849 13.5391 1.88326 13.0346 2.29034 12.628L11.4068 3.51035L16.4904 8.59237Z" fill="white"/>
</svg>
