<svg width="18" height="18" viewBox="0 0 18 18" fill="none" xmlns="http://www.w3.org/2000/svg">
<path d="M17.3082 14.275C17.3082 14.575 17.2415 14.8833 17.0998 15.1833C16.9582 15.4833 16.7748 15.7667 16.5332 16.0333C16.1248 16.4833 15.6748 16.8083 15.1665 17.0167C14.6665 17.225 14.1248 17.3333 13.5415 17.3333C12.6915 17.3333 11.7832 17.1333 10.8248 16.725C9.8665 16.3167 8.90817 15.7667 7.95817 15.075C6.99984 14.375 6.0915 13.6 5.22484 12.7417C4.3665 11.875 3.5915 10.9667 2.89984 10.0167C2.2165 9.06667 1.6665 8.11667 1.2665 7.175C0.866504 6.225 0.666504 5.31667 0.666504 4.45C0.666504 3.88333 0.766504 3.34167 0.966504 2.84167C1.1665 2.33333 1.48317 1.86667 1.92484 1.45C2.45817 0.925 3.0415 0.666667 3.65817 0.666667C3.8915 0.666667 4.12484 0.716667 4.33317 0.816667C4.54984 0.916667 4.7415 1.06667 4.8915 1.28333L6.82484 4.00833C6.97484 4.21667 7.08317 4.40833 7.15817 4.59167C7.23317 4.76667 7.27484 4.94167 7.27484 5.1C7.27484 5.3 7.2165 5.5 7.09984 5.69167C6.9915 5.88333 6.83317 6.08333 6.63317 6.28333L5.99984 6.94167C5.90817 7.03333 5.8665 7.14167 5.8665 7.275C5.8665 7.34167 5.87484 7.4 5.8915 7.46667C5.9165 7.53333 5.9415 7.58333 5.95817 7.63333C6.10817 7.90833 6.3665 8.26667 6.73317 8.7C7.10817 9.13333 7.50817 9.575 7.9415 10.0167C8.3915 10.4583 8.82484 10.8667 9.2665 11.2417C9.69984 11.6083 10.0582 11.8583 10.3415 12.0083C10.3832 12.025 10.4332 12.05 10.4915 12.075C10.5582 12.1 10.6248 12.1083 10.6998 12.1083C10.8415 12.1083 10.9498 12.0583 11.0415 11.9667L11.6748 11.3417C11.8832 11.1333 12.0832 10.975 12.2748 10.875C12.4665 10.7583 12.6582 10.7 12.8665 10.7C13.0248 10.7 13.1915 10.7333 13.3748 10.8083C13.5582 10.8833 13.7498 10.9917 13.9582 11.1333L16.7165 13.0917C16.9332 13.2417 17.0832 13.4167 17.1748 13.625C17.2582 13.8333 17.3082 14.0417 17.3082 14.275Z" stroke="#EA4262" stroke-width="1.2" stroke-miterlimit="10"/>
<path d="M14.4167 6.50008C14.4167 6.00008 14.025 5.23342 13.4417 4.60842C12.9083 4.03342 12.2 3.58342 11.5 3.58342" stroke="#EA4262" stroke-width="1.2" stroke-linecap="round" stroke-linejoin="round"/>
<path d="M17.3333 6.5C17.3333 3.275 14.725 0.666667 11.5 0.666667" stroke="#EA4262" stroke-width="1.2" stroke-linecap="round" stroke-linejoin="round"/>
</svg>
