<svg width="30" height="31" viewBox="0 0 30 31" fill="none" xmlns="http://www.w3.org/2000/svg">
<path d="M28.4279 1.57184C26.3314 -0.524443 22.9328 -0.524338 20.8367 1.57206L2.91154 19.4992C2.30205 20.1088 1.87365 20.8755 1.674 21.7141L0.0306132 28.6162C-0.0598668 28.9963 0.0532783 29.3961 0.329518 29.6724C0.605773 29.9485 1.00555 30.0618 1.38559 29.9712L8.28747 28.3279C9.12627 28.1281 9.89319 27.6996 10.5029 27.0898L28.428 9.16262C30.5239 7.06638 30.524 3.66795 28.4279 1.57184ZM22.4277 3.16296C23.6451 1.94532 25.6192 1.94526 26.8368 3.16283C28.0542 4.3803 28.0543 6.35418 26.837 7.57172L25.5 8.90888L21.0909 4.49988L22.4277 3.16296ZM19.5 6.09096L23.9091 10.5L8.91178 25.4989C8.59656 25.8142 8.20002 26.0358 7.76632 26.1391L2.64286 27.3589L3.86281 22.2352C3.96603 21.8017 4.18752 21.4053 4.50262 21.0901L19.5 6.09096Z" fill="white"/>
</svg>
