<svg width="40" height="40" viewBox="0 0 40 40" fill="none" xmlns="http://www.w3.org/2000/svg">
<path fill-rule="evenodd" clip-rule="evenodd" d="M20 0C8.95455 0 0 8.95455 0 20C0 31.0455 8.95455 40 20 40C31.0455 40 40 31.0455 40 20C40 8.95455 31.0455 0 20 0ZM21.8182 27.2727C21.8182 27.7549 21.6266 28.2174 21.2856 28.5584C20.9447 28.8994 20.4822 29.0909 20 29.0909C19.5178 29.0909 19.0553 28.8994 18.7144 28.5584C18.3734 28.2174 18.1818 27.7549 18.1818 27.2727V21.8182H12.7273C12.2451 21.8182 11.7826 21.6266 11.4416 21.2856C11.1006 20.9447 10.9091 20.4822 10.9091 20C10.9091 19.5178 11.1006 19.0553 11.4416 18.7144C11.7826 18.3734 12.2451 18.1818 12.7273 18.1818H18.1818V12.7273C18.1818 12.2451 18.3734 11.7826 18.7144 11.4416C19.0553 11.1006 19.5178 10.9091 20 10.9091C20.4822 10.9091 20.9447 11.1006 21.2856 11.4416C21.6266 11.7826 21.8182 12.2451 21.8182 12.7273V18.1818H27.2727C27.7549 18.1818 28.2174 18.3734 28.5584 18.7144C28.8994 19.0553 29.0909 19.5178 29.0909 20C29.0909 20.4822 28.8994 20.9447 28.5584 21.2856C28.2174 21.6266 27.7549 21.8182 27.2727 21.8182H21.8182V27.2727Z" fill="#58BD97"/>
</svg>
