<svg width="18" height="18" viewBox="0 0 18 18" fill="none" xmlns="http://www.w3.org/2000/svg">
<path d="M16.4599 1.53993C15.2953 0.375332 13.4071 0.37539 12.2426 1.54006L2.2842 11.4996C1.94559 11.8383 1.70759 12.2642 1.59667 12.7301L0.683679 16.5646C0.633412 16.7758 0.696271 16.9978 0.849737 17.1513C1.00321 17.3048 1.22531 17.3677 1.43645 17.3173L5.27082 16.4044C5.73682 16.2934 6.16289 16.0553 6.5016 15.7166L16.46 5.75703C17.6244 4.59246 17.6244 2.70444 16.4599 1.53993ZM13.1265 2.42389C13.8028 1.74742 14.8996 1.74739 15.576 2.42381C16.2523 3.10019 16.2524 4.19679 15.5761 4.8732L14.8333 5.61606L12.3838 3.16662L13.1265 2.42389ZM11.5 4.05056L13.9495 6.50001L5.61766 14.8328C5.44254 15.0079 5.22224 15.131 4.9813 15.1884L2.13493 15.8661L2.81268 13.0196C2.87002 12.7788 2.99307 12.5585 3.16813 12.3834L11.5 4.05056Z" fill="#626262"/>
</svg>
