<svg width="20" height="20" viewBox="0 0 20 20" fill="none" xmlns="http://www.w3.org/2000/svg">
<path d="M14.1832 0.733215C15.1608 -0.244405 16.7485 -0.244405 17.7261 0.733215L19.2668 2.27524C20.2444 3.25255 20.2444 4.83877 19.2668 5.81647L17.3741 7.70929L12.2905 2.62604L14.1832 0.733215ZM16.4904 8.59313L7.37119 17.7092C6.96451 18.1159 6.46006 18.417 5.90868 18.5774L1.20324 19.9618C0.873976 20.0596 0.517734 19.9696 0.274895 19.692C0.0320556 19.4847 -0.0587451 19.1288 0.0381559 18.7964L1.42222 14.0917C1.5849 13.5403 1.88326 13.0358 2.29034 12.6291L11.4068 3.51066L16.4904 8.59313Z" fill="#818181"/>
</svg>
