<svg width="48" height="35" viewBox="0 0 48 35" fill="none" xmlns="http://www.w3.org/2000/svg">
<path d="M36.9429 12L36.4834 11.8354L32.592 4.53943C31.8611 3.16831 30.7713 2.02165 29.4391 1.22208C28.1068 0.4225 26.5823 8.2835e-05 25.0286 7.14186e-09H15.2297C13.4303 -7.34266e-05 11.6765 0.566148 10.2169 1.61842C8.75722 2.6707 7.66575 4.15566 7.09714 5.86286L5.24229 11.4274C3.6883 12.0824 2.36205 13.1813 1.42957 14.5864C0.497091 15.9915 -0.000183965 17.6405 5.10525e-08 19.3269V23.1429C5.10525e-08 25.5771 1.45029 27.6686 3.53143 28.6114C3.80094 30.1556 4.59135 31.5608 5.77101 32.593C6.95067 33.6252 8.44837 34.2221 10.0146 34.2842C11.5809 34.3463 13.1212 33.87 14.3789 32.9345C15.6366 31.999 16.5359 30.6608 16.9269 29.1429H31.0731C31.4641 30.6608 32.3634 31.999 33.6211 32.9345C34.8788 33.87 36.4191 34.3463 37.9854 34.2842C39.5516 34.2221 41.0493 33.6252 42.229 32.593C43.4087 31.5608 44.1991 30.1556 44.4686 28.6114C45.521 28.1364 46.414 27.3677 47.0404 26.3977C47.6668 25.4277 48 24.2975 48 23.1429V21.9806C47.9997 20.2112 47.4519 18.4852 46.4316 17.0395C45.4114 15.5939 43.9688 14.4994 42.3017 13.9063L37.1246 12.0651V12H36.9429ZM10.3474 6.94629C10.6887 5.92152 11.344 5.03023 12.2204 4.39882C13.0967 3.76742 14.1496 3.42795 15.2297 3.42857H18.8571V12H8.664L10.3474 6.94629ZM32.6846 12H22.2857V3.42857H25.0286C25.9609 3.42824 26.8758 3.68137 27.6754 4.16088C28.475 4.64039 29.1292 5.32824 29.568 6.15086L32.688 12H32.6846ZM6.85714 27.4286C6.85714 26.5193 7.21837 25.6472 7.86135 25.0042C8.50433 24.3612 9.3764 24 10.2857 24C11.195 24 12.0671 24.3612 12.7101 25.0042C13.3531 25.6472 13.7143 26.5193 13.7143 27.4286C13.7143 28.3379 13.3531 29.21 12.7101 29.8529C12.0671 30.4959 11.195 30.8571 10.2857 30.8571C9.3764 30.8571 8.50433 30.4959 7.86135 29.8529C7.21837 29.21 6.85714 28.3379 6.85714 27.4286ZM37.7143 24C38.6236 24 39.4957 24.3612 40.1387 25.0042C40.7816 25.6472 41.1429 26.5193 41.1429 27.4286C41.1429 28.3379 40.7816 29.21 40.1387 29.8529C39.4957 30.4959 38.6236 30.8571 37.7143 30.8571C36.805 30.8571 35.9329 30.4959 35.2899 29.8529C34.6469 29.21 34.2857 28.3379 34.2857 27.4286C34.2857 26.5193 34.6469 25.6472 35.2899 25.0042C35.9329 24.3612 36.805 24 37.7143 24Z" fill="#58BD97"/>
</svg>
