<svg width="24" height="24" viewBox="0 0 24 24" fill="none" xmlns="http://www.w3.org/2000/svg">
<path d="M0.595575 0.830686L0.704505 0.704505C1.10391 0.3051 1.7289 0.268801 2.16932 0.595575L2.2955 0.704505L12 10.4085L21.7045 0.704505C22.1439 0.26517 22.8561 0.26517 23.2954 0.704505C23.7348 1.14384 23.7348 1.85616 23.2954 2.2955L13.5915 12L23.2954 21.7045C23.6949 22.1038 23.7312 22.7289 23.4043 23.1693L23.2954 23.2954C22.8961 23.6949 22.2711 23.7312 21.8307 23.4043L21.7045 23.2954L12 13.5915L2.2955 23.2954C1.85616 23.7348 1.14384 23.7348 0.704505 23.2954C0.26517 22.8561 0.26517 22.1439 0.704505 21.7045L10.4085 12L0.704505 2.2955C0.3051 1.89609 0.268801 1.2711 0.595575 0.830686L0.704505 0.704505L0.595575 0.830686Z" fill="#A9A9A9"/>
</svg>
