<svg width="32" height="39" viewBox="0 0 32 39" fill="none" xmlns="http://www.w3.org/2000/svg">
<path d="M16.3538 10.1963C16.3692 10.2697 16.3755 10.3446 16.3724 10.4195C16.3703 12.3325 15.6998 14.1845 14.4768 15.6555C13.2538 17.1264 11.5553 18.1238 9.67493 18.4752V37.2096C9.67493 37.6044 9.51812 37.9829 9.239 38.2621C8.95989 38.5412 8.58132 38.698 8.18659 38.698C7.79186 38.698 7.41329 38.5412 7.13418 38.2621C6.85506 37.9829 6.69825 37.6044 6.69825 37.2096V18.4752C4.81786 18.1238 3.11934 17.1264 1.89638 15.6555C0.673416 14.1845 0.00288863 12.3325 0.000730798 10.4195C-0.00227001 10.3446 0.00397828 10.2697 0.0193347 10.1963L1.50767 1.26626C1.53943 1.07325 1.6089 0.888386 1.7121 0.722224C1.81531 0.556062 1.95023 0.411854 2.10917 0.297835C2.2681 0.183816 2.44794 0.102218 2.63841 0.0577001C2.82888 0.0131822 3.02625 0.00661632 3.21926 0.0383772C3.41227 0.070138 3.59713 0.139603 3.76329 0.242808C3.92946 0.346012 4.07366 0.480934 4.18768 0.63987C4.3017 0.798806 4.3833 0.978643 4.42782 1.16911C4.47234 1.35958 4.4789 1.55696 4.44714 1.74997L3.23787 8.9312H6.69825V1.48951C6.69825 1.09478 6.85506 0.71621 7.13418 0.437093C7.41329 0.157975 7.79186 0.00116857 8.18659 0.00116857C8.58132 0.00116857 8.95989 0.157975 9.239 0.437093C9.51812 0.71621 9.67493 1.09478 9.67493 1.48951V8.9312H13.1353L11.926 1.73136C11.8943 1.53835 11.9008 1.34098 11.9454 1.15051C11.9899 0.960039 12.0715 0.780201 12.1855 0.621265C12.4158 0.30028 12.7641 0.0839168 13.1539 0.0197729C13.5437 -0.0443711 13.943 0.0489586 14.264 0.279231C14.585 0.509503 14.8014 0.857855 14.8655 1.24765L16.3538 10.1777V10.1963ZM31.3675 0.261628C31.1698 0.129898 30.944 0.0461625 30.7082 0.0170931C30.4724 -0.0119764 30.2331 0.0144237 30.0093 0.0941897C26.1397 1.48951 23.0328 6.21498 20.8003 14.1032C19.7998 17.722 19.0661 21.4093 18.605 25.1355C18.5838 25.343 18.6059 25.5527 18.6699 25.7513C18.734 25.9498 18.8386 26.1329 18.977 26.289C19.1183 26.4452 19.2905 26.5705 19.4826 26.657C19.6747 26.7434 19.8826 26.7892 20.0933 26.7913H29.0233V37.2096C29.0233 37.6044 29.1801 37.9829 29.4592 38.2621C29.7384 38.5412 30.1169 38.698 30.5117 38.698C30.9064 38.698 31.285 38.5412 31.5641 38.2621C31.8432 37.9829 32 37.6044 32 37.2096V1.48951C31.9986 1.24951 31.9406 1.01323 31.8307 0.799879C31.7207 0.586525 31.562 0.402112 31.3675 0.261628Z" fill="#58BD97"/>
</svg>
