<svg width="24" height="24" viewBox="0 0 24 24" fill="none" xmlns="http://www.w3.org/2000/svg">
<circle cx="12" cy="12" r="10" fill="#58BD97"/>
<path d="M15.75 9.5C15.75 10.4946 15.3549 11.4484 14.6517 12.1517C13.9484 12.8549 12.9946 13.25 12 13.25C11.0054 13.25 10.0516 12.8549 9.34835 12.1517C8.64509 11.4484 8.25 10.4946 8.25 9.5C8.25 8.50544 8.64509 7.55161 9.34835 6.84835C10.0516 6.14509 11.0054 5.75 12 5.75C12.9946 5.75 13.9484 6.14509 14.6517 6.84835C15.3549 7.55161 15.75 8.50544 15.75 9.5Z" fill="white"/>
<path d="M19 18.5C19 19.4283 18.2625 20.3185 16.9497 20.9749C15.637 21.6313 13.8565 22 12 22C10.1435 22 8.36301 21.6313 7.05025 20.9749C5.7375 20.3185 5 19.4283 5 18.5C5 17.5717 5.68725 16.1564 7 15.5C8.31275 14.8436 10.1435 14.5 12 14.5C13.8565 14.5 15.6872 14.8436 17 15.5C18.3128 16.1564 19 17.5717 19 18.5Z" fill="white"/>
</svg>
