<svg width="8" height="14" viewBox="0 0 8 14" fill="none" xmlns="http://www.w3.org/2000/svg">
<path d="M7.36395 0.292786C7.55142 0.480314 7.65674 0.734622 7.65674 0.999786C7.65674 1.26495 7.55142 1.51926 7.36395 1.70679L2.41395 6.65678L7.36395 11.6068C7.54611 11.7954 7.6469 12.048 7.64463 12.3102C7.64235 12.5724 7.53718 12.8232 7.35177 13.0086C7.16636 13.194 6.91555 13.2992 6.65335 13.3015C6.39116 13.3037 6.13855 13.2029 5.94995 13.0208L0.292952 7.36378C0.105481 7.17625 0.000164986 6.92195 0.000164986 6.65678C0.000164986 6.39162 0.105481 6.13731 0.292952 5.94978L5.94995 0.292786C6.13748 0.105315 6.39179 0 6.65695 0C6.92212 0 7.17642 0.105315 7.36395 0.292786Z" fill="black"/>
</svg>
