<svg width="18" height="14" viewBox="0 0 18 14" fill="none" xmlns="http://www.w3.org/2000/svg">
<path fill-rule="evenodd" clip-rule="evenodd" d="M1.54515 1.21218C0.666473 2.09086 0.666473 3.50507 0.666473 6.33349V7.66683C0.666473 10.4953 0.666473 11.9095 1.54515 12.7881C2.42383 13.6668 3.83805 13.6668 6.66648 13.6668H11.3331C14.1616 13.6668 15.5758 13.6668 16.4545 12.7881C17.3331 11.9095 17.3331 10.4953 17.3331 7.66683V6.3335C17.3331 3.50507 17.3331 2.09086 16.4545 1.21218C15.5758 0.333496 14.1616 0.333496 11.3331 0.333496H6.66647C3.83805 0.333496 2.42383 0.333496 1.54515 1.21218ZM3.31534 3.31824C2.85985 3.00591 2.23741 3.12196 1.92508 3.57744C1.61275 4.03293 1.72879 4.65536 2.18428 4.9677L7.86875 8.86562C8.55036 9.33301 9.44925 9.33301 10.1309 8.86562L15.8153 4.9677C16.2708 4.65536 16.3869 4.03293 16.0745 3.57744C15.7622 3.12196 15.1398 3.00591 14.6843 3.31824L8.99981 7.21616L3.31534 3.31824Z" fill="#A9A9A9"/>
</svg>
