<svg width="24" height="24" viewBox="0 0 24 24" fill="none" xmlns="http://www.w3.org/2000/svg">
<path fill-rule="evenodd" clip-rule="evenodd" d="M12 0C5.37273 0 0 5.37273 0 12C0 18.6273 5.37273 24 12 24C18.6273 24 24 18.6273 24 12C24 5.37273 18.6273 0 12 0ZM13.0909 16.3636C13.0909 16.653 12.976 16.9304 12.7714 17.135C12.5668 17.3396 12.2893 17.4545 12 17.4545C11.7107 17.4545 11.4332 17.3396 11.2286 17.135C11.024 16.9304 10.9091 16.653 10.9091 16.3636V13.0909H7.63636C7.34704 13.0909 7.06956 12.976 6.86497 12.7714C6.66039 12.5668 6.54545 12.2893 6.54545 12C6.54545 11.7107 6.66039 11.4332 6.86497 11.2286C7.06956 11.024 7.34704 10.9091 7.63636 10.9091H10.9091V7.63636C10.9091 7.34704 11.024 7.06956 11.2286 6.86497C11.4332 6.66039 11.7107 6.54545 12 6.54545C12.2893 6.54545 12.5668 6.66039 12.7714 6.86497C12.976 7.06956 13.0909 7.34704 13.0909 7.63636V10.9091H16.3636C16.653 10.9091 16.9304 11.024 17.135 11.2286C17.3396 11.4332 17.4545 11.7107 17.4545 12C17.4545 12.2893 17.3396 12.5668 17.135 12.7714C16.9304 12.976 16.653 13.0909 16.3636 13.0909H13.0909V16.3636Z" fill="#58BD97"/>
</svg>
